<svg xmlns="http://www.w3.org/2000/svg" width="1200" height="630" viewBox="0 0 1200 630">
  <rect width="1200" height="630" fill="#282828"/>
  <text x="70" y="108" fill="#d79921" font-family="ui-monospace, monospace" font-size="21" letter-spacing="5">CLEAN-ROOM GAME RECONSTRUCTION</text>
  <text x="66" y="268" fill="#ebdbb2" font-family="Arial, sans-serif" font-size="104" font-weight="700">OpenZT2</text>
  <text x="72" y="343" fill="#a89984" font-family="Arial, sans-serif" font-size="35">Reconstruction dashboard</text>
  <text x="72" y="407" fill="#a89984" font-family="Arial, sans-serif" font-size="25">Evidence, behaviour and implementation</text>
  <text x="72" y="445" fill="#a89984" font-family="Arial, sans-serif" font-size="25">tracked against the original game.</text>
  <g transform="translate(670 73)">
    <rect width="458" height="486" rx="7" fill="#fbf1c7"/>
    <rect width="458" height="42" rx="7" fill="#ebdbb2"/><circle cx="22" cy="21" r="6" fill="#9d0006"/><circle cx="42" cy="21" r="6" fill="#b57614"/><circle cx="62" cy="21" r="6" fill="#79740e"/>
    <text x="24" y="80" fill="#3c3836" font-family="Arial, sans-serif" font-size="17" font-weight="700">Reconstruction pipeline</text>
    <g font-family="ui-monospace, monospace" font-size="11" fill="#7c6f64"><text x="24" y="111">EVIDENCE</text><text x="170" y="111">BEHAVIOUR</text><text x="327" y="111">IMPLEMENTATION</text></g>
    <path d="M89 107H155M246 107H313" stroke="#b57614" stroke-width="2"/>
    <g transform="translate(24 145)">
      <text y="0" fill="#3c3836" font-family="Arial, sans-serif" font-size="14" font-weight="700">Executable coverage</text>
      <rect y="14" width="410" height="30" rx="3" fill="#d5c4a1"/><rect y="14" width="217" height="30" rx="3" fill="#79740e"/><rect x="217" y="14" width="91" height="30" fill="#b57614"/><rect x="308" y="14" width="54" height="30" fill="#076678"/>
      <text y="82" fill="#3c3836" font-family="Arial, sans-serif" font-size="14" font-weight="700">Global data</text>
      <rect y="96" width="410" height="30" rx="3" fill="#d5c4a1"/><rect y="96" width="258" height="30" rx="3" fill="#79740e"/><rect x="258" y="96" width="74" height="30" fill="#b57614"/>
      <text y="164" fill="#3c3836" font-family="Arial, sans-serif" font-size="14" font-weight="700">Type reconstruction</text>
      <rect y="178" width="410" height="30" rx="3" fill="#d5c4a1"/><rect y="178" width="188" height="30" rx="3" fill="#79740e"/><rect x="188" y="178" width="119" height="30" fill="#076678"/><rect x="307" y="178" width="48" height="30" fill="#b57614"/>
      <text y="246" fill="#3c3836" font-family="Arial, sans-serif" font-size="14" font-weight="700">Functional specification</text>
      <g fill="#7c6f64"><rect y="263" width="410" height="1"/><rect y="281" width="318" height="5" rx="2"/><rect y="301" width="365" height="5" rx="2"/><rect y="321" width="274" height="5" rx="2"/></g>
    </g>
  </g>
  <text x="72" y="557" fill="#83a598" font-family="ui-monospace, monospace" font-size="18" letter-spacing="3">OPENZT2.OVER-YONDER.TECH</text>
</svg>
